<?xml version="1.0" standalone="no"?>
<!DOCTYPE svg PUBLIC "-//W3C//DTD SVG 20010904//EN"
 "http://www.w3.org/TR/2001/REC-SVG-20010904/DTD/svg10.dtd">
<svg version="1.0" xmlns="http://www.w3.org/2000/svg"
 width="288.000000pt" height="288.000000pt" viewBox="0 0 288.000000 288.000000"
 preserveAspectRatio="xMidYMid meet">

<g transform="translate(0.000000,288.000000) scale(0.100000,-0.100000)"
fill="#000000" stroke="none">
<path d="M1265 2864 c-411 -62 -745 -260 -982 -581 -114 -153 -205 -359 -249
-563 -27 -121 -27 -439 0 -560 85 -390 313 -722 642 -932 125 -80 320 -158
484 -194 131 -29 450 -26 580 5 434 103 780 369 972 748 63 122 97 215 129
353 31 130 34 449 5 580 -78 360 -272 662 -562 877 -147 108 -336 195 -524
240 -87 20 -136 25 -285 28 -99 2 -193 1 -210 -1z m413 -393 l242 -133 0 -99
c0 -55 3 -99 6 -99 4 0 46 21 93 46 l87 47 252 -139 252 -139 -2 -198 -3 -199
-235 -121 -236 -121 -142 78 -142 78 -185 -95 -185 -96 -205 115 c-113 63
-210 114 -215 114 -6 0 -73 -32 -150 -70 l-140 -70 -247 138 -248 138 -2 200
-3 199 240 120 c195 98 243 118 257 109 10 -6 53 -30 96 -53 l77 -42 0 95 0
95 233 120 c127 67 239 120 247 118 8 -1 124 -62 258 -136z m-563 -1243 c2 -1
-47 -149 -109 -328 l-113 -325 -89 0 -89 0 -111 325 -111 325 80 3 c44 2 83
-1 86 -7 4 -5 38 -115 76 -245 38 -129 72 -232 76 -228 3 4 36 111 73 237 38
127 72 235 76 240 7 9 146 12 155 3z m456 -16 c64 -28 91 -62 96 -119 5 -60
-19 -108 -71 -142 l-36 -25 32 -13 c101 -43 134 -154 76 -251 -11 -18 -41 -45
-66 -60 -46 -26 -51 -27 -229 -30 l-183 -4 0 330 c0 181 3 332 8 337 4 4 80 5
168 2 131 -4 169 -9 205 -25z m589 7 c0 -5 50 -149 110 -319 61 -170 110 -314
110 -320 0 -7 -27 -10 -82 -8 l-83 3 -19 68 -20 67 -117 0 -118 0 -22 -70 -23
-70 -84 0 c-74 0 -83 2 -78 17 4 9 56 154 117 322 61 168 115 311 119 316 10
13 190 7 190 -6z"/>
<path d="M1202 2476 c-112 -56 -204 -106 -203 -111 0 -4 82 -53 183 -110 l183
-102 45 22 44 23 41 -20 41 -20 161 81 c89 44 164 84 167 89 5 9 -427 252
-447 252 -7 -1 -103 -47 -215 -104z"/>
<path d="M970 2253 l0 -88 94 -52 c52 -29 100 -53 108 -53 7 1 46 18 87 39
l74 38 -34 20 c-19 11 -86 49 -149 83 -63 34 -130 71 -147 82 l-33 20 0 -89z"/>
<path d="M535 2149 c-116 -59 -208 -112 -206 -116 3 -4 104 -63 225 -130 l220
-122 101 52 c96 50 100 53 103 87 3 33 8 38 77 75 41 22 75 42 75 45 0 3 -55
35 -123 72 -67 38 -153 85 -192 106 l-70 39 -210 -108z"/>
<path d="M1933 2117 c-90 -45 -163 -85 -163 -89 0 -3 42 -29 92 -57 l93 -50 0
-48 0 -47 90 -50 89 -50 213 109 c117 60 213 111 213 114 0 8 -431 246 -450
248 -8 1 -88 -35 -177 -80z"/>
<path d="M300 1836 l0 -174 178 -97 c97 -54 201 -111 230 -127 l52 -30 0 174
0 173 -178 98 c-97 53 -201 111 -229 127 l-53 30 0 -174z"/>
<path d="M2358 1812 l-208 -107 0 -177 0 -176 213 108 212 109 3 175 c1 97 -1
176 -5 175 -5 0 -101 -48 -215 -107z"/>
<path d="M1950 1656 l0 -136 -35 -18 -35 -18 67 -37 c38 -20 92 -50 121 -67
l52 -30 0 178 0 178 -72 39 c-40 22 -79 41 -85 43 -10 3 -13 -29 -13 -132z"/>
<path d="M1350 1045 l0 -75 44 0 c61 0 94 15 107 47 23 61 -22 103 -111 103
l-40 0 0 -75z"/>
<path d="M1350 766 l0 -86 39 0 c98 0 141 27 141 89 0 56 -26 75 -111 79 l-69
4 0 -86z"/>
<path d="M2018 967 c-21 -68 -38 -126 -38 -130 0 -4 34 -7 75 -7 53 0 75 4 75
13 0 6 -17 65 -38 129 l-37 118 -37 -123z"/>
</g>
</svg>
